# xmcd
#
# Track frame offsets:
#  150
#  22169
#  52762
#  72420
#  95231
#  114473
#  147359
#  160785
#  193126
#
# Disc length: 2951 seconds
#
# Revision: 1
# Processed by: cddbd v1.5.1PL2 Copyright (c) Steve Scherf et al.
# Submitted via: Collectorz.com_Music_Collector 6.11
#
DISCID=810b8509
DTITLE=Abrahams, Chris - Thrown
DYEAR=2005
DGENRE=Contemporary Instrumental - DSP - Jazz
TTITLE0=Bellicose
TTITLE1=Can of Faces
TTITLE2=Horsenel
TTITLE3=Remembrancer
TTITLE4=Coins in Vinegar
TTITLE5=Hung Door
TTITLE6=Them Hitting
TTITLE7=Car Park Land
TTITLE8=Nocturne
EXTD=
EXTT0=
EXTT1=
EXTT2=
EXTT3=
EXTT4=
EXTT5=
EXTT6=
EXTT7=
EXTT8=
PLAYORDER=
